<svg height="511pt" viewBox="-7 0 511 511.95002" width="511pt" xmlns="http://www.w3.org/2000/svg"><path d="m319 5.960938c-73.042969-14.882813-147.046875-1.585938-203.109375 36.457031-67.109375 46.523437-109.351563 121.101562-114.738281 202.582031-2.460938 48.117188 1.789062 96.34375 12.632812 143.285156 6.585938 30.109375 17.070313 68.828125 39.851563 101.277344 3.207031 4.585938 8.453125 7.3125 14.046875 7.304688.207031 0 .421875-.003907.628906-.011719 5.78125-.195313 11.066406-3.3125 14.035156-8.277344l41.027344-68.402344c1.394531-2.390625 2.171875-5.089843 2.265625-7.851562l31.53125-22.546875 4.863281 19.472656c-8.222656 23.722656-19.742187 46.167969-34.21875 66.679688-4.234375 5.242187-4.980468 12.484374-1.902344 18.480468 3.078126 5.992188 9.402344 9.605469 16.125 9.214844 26.394532-1.566406 63.355469-9.035156 89.5625-35.726562 5.601563-5.660157 14.441407-6.523438 21.027344-2.050782 24.191406 16.332032 79.636719 44.035156 179.210938 46.101563h.359375c5.476562-.019531 10.605469-2.667969 13.796875-7.117188s4.054687-10.160156 2.320312-15.351562l-51.421875-154.277344c-1.71875-5.175781-5.816406-9.214844-11.015625-10.863281-5.203125-1.648438-10.875-.707032-15.265625 2.53125-5.996093 4.160156-13.175781 6.265625-20.46875 6-16.472656 0-29.25-13.800782-33.78125-19.441406 2.347657-11.121094 14.890625-20.820313 26.398438-26.398438 7.480469-3.761719 15.691406-5.84375 24.058593-6.097656.1875-.003906.371094-.003906.558594-.003906 36.285156 0 52.128906 38.71875 65.242188 78.390624 4.515625 13.550782 8.324218 27.328126 11.40625 41.273438-.289063 4.503906 2.976562 8.453125 7.457031 9.015625 4.476563.558594 8.617187-2.464844 9.449219-6.898437l.003906-.019532c.773438-4.179687 18.441406-103.074218-28.621094-159.65625-16.910156-20.027344-40.726562-32.964844-66.730468-36.261718l40.425781-28.875 83.308593-49.613282v-.003906c4.539063-2.691406 7.582032-7.332031 8.234376-12.566406.679687-5.160156-1.066407-10.34375-4.730469-14.035156-47.484375-48.023438-107.855469-81.265626-173.824219-95.71875zm-199.640625 389.871093c-7.820313-15.5625-13.441406-32.136719-16.707031-49.246093-6.839844-29.320313-9.511719-59.453126-7.933594-89.515626 3.195312-48.839843 28.457031-93.5625 68.636719-121.507812 36.113281-23.15625 79.972656-30.949219 121.851562-21.65625 38.851563 8.601562 74.511719 27.925781 102.925781 55.78125l-44.214843 31.589844c-17.433594-23.78125-45.691407-37.15625-75.136719-35.558594-54.472656 3.003906-115.511719 43.605469-123.363281 106.363281-6.675781 53.386719 1.839843 86.855469 6.589843 100.40625zm48.128906-30.972656c-8.207031-29.503906-9.957031-60.421875-5.136719-90.660156 6.738282-53.902344 59.890626-88.824219 107.402344-91.4375 20.929688-1.105469 41.25 7.230469 55.371094 22.714843-69.761719 4.925782-94.765625 42.007813-111.179688 99.449219-11.492187 40.207031-34.894531 54.945313-46.460937 59.929688zm105.640625 93.578125c-2.488281-24.894531 3.722656-49.886719 17.578125-70.71875 1.523438-2.054688 3.859375-3.351562 6.40625-3.558594 2.339844-.214844 4.660157.613282 6.339844 2.257813 13.628906 13.277343 44.523437 33.425781 100.675781 24.363281l28.078125 84.101562c-82.277343-1.710937-132.367187-21.296874-159.082031-36.445312zm146.066406-204.496094c22.171876 26.660156 27.9375 65.496094 28.417969 96.363282-11.355469-34.175782-30.675781-86.78125-80.976562-86.4375-10.882813.285156-21.574219 2.949218-31.316407 7.804687-8.03125 3.890625-34.378906 18.46875-36.242187 42.144531-.363281 2.324219.097656 4.699219 1.300781 6.722656.800782 1.199219 19.941406 29.398438 49.765625 29.398438 10.925781.253906 21.640625-3.019531 30.558594-9.332031l17.964844 53.8125c-47.070313 6.84375-72.214844-9.421875-83.300781-20.222657-5.238282-5.03125-12.367188-7.59375-19.609376-7.050781-7.453124.597657-14.285156 4.382813-18.742187 10.386719-14.449219 20.738281-21.957031 45.523438-21.445313 70.796875-12.472656-5.027344-26.75-2.023437-36.136718 7.605469-22.40625 22.816406-55 29.261718-78.332032 30.707031 21.65625-26.84375 37.269532-72.300781 37.921876-74.222656.527343-1.554688.597656-3.226563.199218-4.820313l-6.605468-26.4375c14.597656-5.914062 43.996093-23.464844 57.730468-71.542968 16.246094-56.867188 38.792969-87.679688 111.265625-87.679688 33.816407 0 59.917969 10.769531 77.582031 32.003906zm61.386719-140.324218v-.003907l-77.804687 46.335938c-31.234375-31.460938-70.875-53.253907-114.175782-62.769531-46.382812-10.207032-94.925781-1.472657-134.839843 24.265624-44.5 30.90625-72.496094 80.394532-76.066407 134.457032-1.691406 31.675781 1.101563 63.433594 8.289063 94.328125 3.949219 21.5625 11.652344 42.265625 22.761719 61.167969l-41.140625 68.355468c-21.039063-29.957031-30.902344-66.570312-37.140625-95.097656-10.503906-45.371094-14.640625-91.980469-12.289063-138.492188 5.011719-76.253906 44.515625-146.058593 107.300781-189.621093 39.992188-26.316407 86.941407-40.066407 134.8125-39.484375 18.574219.015625 37.097657 1.902344 55.296876 5.625 62.628906 13.738281 119.941406 45.316406 165.011718 90.921875zm0 0"/><path d="m394.519531 133.191406c2.828125 3.769532 8.175781 4.535156 11.945313 1.707032l34.132812-25.601563c3.769532-2.824219 4.535156-8.175781 1.707032-11.945313-2.828126-3.769531-8.175782-4.535156-11.945313-1.707031l-34.132813 25.601563c-3.769531 2.828125-4.535156 8.175781-1.707031 11.945312zm0 0"/><path d="m367.210938 111.003906c2.265624.003906 4.4375-.894531 6.035156-2.5l25.597656-25.597656c3.234375-3.347656 3.1875-8.671875-.101562-11.964844-3.292969-3.289062-8.613282-3.335937-11.964844-.101562l-25.597656 25.597656c-2.441407 2.441406-3.171876 6.113281-1.851563 9.300781 1.324219 3.1875 4.433594 5.265625 7.882813 5.265625zm0 0"/><path d="m320.726562 93.039062c2.027344 1.011719 4.371094 1.179688 6.515626.464844 2.148437-.71875 3.925781-2.257812 4.9375-4.28125l17.066406-34.132812c2.105468-4.214844.398437-9.34375-3.816406-11.449219-4.214844-2.109375-9.34375-.402344-11.449219 3.816406l-17.066407 34.132813c-1.015624 2.023437-1.179687 4.367187-.464843 6.515625.714843 2.144531 2.253906 3.921875 4.277343 4.933593zm0 0"/><path d="m293.113281 34.644531c-2.148437-.722656-4.496093-.558593-6.519531.453125-2.027344 1.011719-3.566406 2.789063-4.277344 4.941406l-8.535156 25.601563c-1.488281 4.46875.925781 9.300781 5.398438 10.792969 4.46875 1.492187 9.304687-.925782 10.792968-5.394532l8.535156-25.601562c.714844-2.144531.550782-4.488281-.460937-6.515625-1.011719-2.023437-2.789063-3.5625-4.933594-4.277344zm0 0"/><path d="m230.679688 34.207031c-4.714844 0-8.535157 3.820313-8.535157 8.53125v25.601563c0 4.710937 3.820313 8.53125 8.535157 8.53125 4.710937 0 8.53125-3.820313 8.53125-8.53125v-25.601563c0-4.710937-3.820313-8.53125-8.53125-8.53125zm0 0"/><path d="m176.976562 53.773438c-3.347656-3.234376-8.667968-3.1875-11.960937.101562-3.289063 3.292969-3.335937 8.613281-.101563 11.964844l17.066407 17.066406c3.347656 3.234375 8.667969 3.1875 11.960937-.105469 3.292969-3.292969 3.335938-8.613281.105469-11.960937zm0 0"/><path d="m134.3125 79.371094c-3.347656-3.234375-8.671875-3.1875-11.964844.105468-3.289062 3.292969-3.335937 8.613282-.101562 11.960938l17.066406 17.066406c3.347656 3.234375 8.671875 3.1875 11.960938-.101562 3.292968-3.292969 3.339843-8.613282.105468-11.964844zm0 0"/><path d="m106.496094 128.972656-17.066406-8.535156c-4.214844-2.105469-9.34375-.398438-11.449219 3.816406-2.109375 4.21875-.402344 9.34375 3.816406 11.453125l17.066406 8.53125c2.726563 1.363281 5.972657 1.167969 8.515625-.511719 2.546875-1.679687 4-4.589843 3.820313-7.632812-.183594-3.042969-1.976563-5.757812-4.703125-7.121094zm0 0"/><path d="m80.894531 171.640625-17.066406-8.535156c-2.726563-1.363281-5.972656-1.167969-8.519531.511719-2.542969 1.679687-3.996094 4.589843-3.816406 7.632812.183593 3.042969 1.976562 5.757812 4.703124 7.121094l17.066407 8.535156c2.726562 1.363281 5.972656 1.167969 8.519531-.511719 2.542969-1.679687 4-4.589843 3.816406-7.632812s-1.976562-5.757813-4.703125-7.121094zm0 0"/><path d="m42.945312 230.472656h17.066407c4.714843 0 8.535156-3.820312 8.535156-8.535156 0-4.710938-3.820313-8.53125-8.535156-8.53125h-17.066407c-4.710937 0-8.535156 3.820312-8.535156 8.53125 0 4.714844 3.824219 8.535156 8.535156 8.535156zm0 0"/><path d="m60.011719 273.140625c0-4.714844-3.820313-8.535156-8.53125-8.535156h-17.070313c-4.710937 0-8.53125 3.820312-8.53125 8.535156 0 4.710937 3.820313 8.53125 8.53125 8.53125h17.070313c4.710937 0 8.53125-3.820313 8.53125-8.53125zm0 0"/><path d="m46.761719 331.972656 17.066406-8.535156c2.726563-1.363281 4.519531-4.078125 4.703125-7.121094.183594-3.042968-1.273438-5.953125-3.816406-7.632812-2.546875-1.679688-5.792969-1.875-8.519532-.511719l-17.066406 8.535156c-4.214844 2.105469-5.925781 7.234375-3.816406 11.449219s7.234375 5.921875 11.449219 3.816406zm0 0"/><path d="m74.578125 360.972656c-1.597656-1.601562-3.769531-2.5-6.03125-2.5-2.265625 0-4.433594.898438-6.035156 2.5l-17.066407 17.066406c-2.21875 2.140626-3.109374 5.316407-2.328124 8.296876.78125 2.984374 3.113281 5.316406 6.097656 6.097656 2.980468.78125 6.15625-.109375 8.296875-2.328125l17.066406-17.066407c1.601563-1.601562 2.5-3.769531 2.5-6.035156 0-2.261718-.898437-4.433594-2.5-6.03125zm0 0"/><path d="m62.511719 432.773438c1.601562 1.597656 3.769531 2.5 6.035156 2.5 2.261719 0 4.433594-.902344 6.03125-2.5l17.066406-17.066407c3.234375-3.351562 3.1875-8.671875-.101562-11.964843-3.292969-3.289063-8.617188-3.335938-11.964844-.101563l-17.066406 17.066406c-1.601563 1.597657-2.5 3.769531-2.5 6.03125s.898437 4.433594 2.5 6.035157zm0 0"/></svg>